PathFileType	4	(X/Y/Z)	D:\TRACE\v60_Jaco2_6-2-23\JustBodyDRS_Motion3_5-platform.trc
DataRate	CameraRate	NumFrames	NumMarkers	Units	OrigDataRate	OrigDataStartFrame	OrigNumFrames
100.00	100.00	      48	5	mm	100.00	2626	      7000
Frame#	Time	Left_Front			Right_Front			Left_Aft			Right_Aft			Post			
		X1	Y1	Z1	X2	Y2	Z2	X3	Y3	Z3	X4	Y4	Z4	X5	Y5	Z5	

2626	26.250	-797.82294	65.89594	-635.22650	772.76477	63.87584	-612.41718	-728.94708	-27.86078	494.75128	685.71112	-37.79013	600.05511	-3.46304	1385.72131	-836.54742	
2627	26.260	-797.83392	65.47034	-635.38782	772.81403	63.17025	-612.55200	-729.14514	-27.41705	494.59912	685.47693	-37.54014	600.10223	-3.73683	1385.18457	-837.87024	
2628	26.270	-797.90594	64.81558	-635.74860	772.78668	62.64920	-612.82166	-729.18182	-27.09742	494.46869	685.23987	-37.05451	600.02484	-3.12655	1384.37573	-839.27234	
2629	26.280	-797.75732	64.28941	-635.88379	772.74518	62.18288	-613.01746	-728.96436	-27.44379	494.64166	685.46045	-36.23703	599.64478	-3.23796	1383.39807	-840.70715	
2630	26.290	-797.81073	64.09564	-636.16986	772.76685	61.59127	-613.23364	-728.98853	-26.53105	494.36575	685.52350	-36.00246	599.56415	-3.44318	1382.40637	-842.14581	
2631	26.300	-797.40106	63.06128	-635.83362	772.84833	61.06390	-613.37823	-728.81726	-26.14224	494.29956	685.80786	-35.33904	599.67914	-3.23886	1381.78894	-843.75262	
2632	26.310	-797.47003	62.23435	-636.39648	773.12231	60.34880	-613.54572	-728.63727	-25.80557	494.18253	685.88019	-34.77285	599.45490	-3.26171	1381.12463	-845.29639	
2633	26.320	-797.20453	61.41591	-636.94653	773.16797	59.66671	-613.72168	-728.51129	-25.23725	494.02481	685.83844	-34.43152	599.28180	-3.09613	1380.10767	-846.40607	
2634	26.330	-796.97632	60.80747	-637.20532	773.33020	58.92574	-614.00140	-728.66052	-24.52877	493.83246	686.09546	-34.06967	599.24500	-3.00022	1379.26221	-847.80109	
2635	26.340	-796.72150	60.69937	-637.20758	773.68854	58.21908	-614.19879	-728.42157	-24.04360	493.70657	686.55402	-32.87044	599.23035	-2.88781	1378.21472	-849.26636	
2636	26.350	-796.83307	59.86285	-637.78503	773.83270	57.48159	-614.46191	-728.01929	-23.70147	493.70090	686.75793	-32.35898	598.96283	-2.11172	1377.10559	-851.14966	
2637	26.360	-796.59772	58.75933	-637.58563	774.07709	56.74128	-614.75000	-727.93329	-23.12613	493.46558	686.49152	-32.08941	599.01709	-2.00083	1376.35840	-852.73950	
2638	26.370	-796.43817	58.14766	-637.75409	774.26495	56.02177	-614.89716	-727.60339	-22.70402	493.30392	686.72198	-31.25272	598.71924	-1.59463	1375.15332	-854.92944	
2639	26.380	-796.48547	57.54908	-638.25244	774.39020	55.19093	-615.19867	-727.46985	-21.95262	493.15024	687.24597	-30.47384	598.59607	-1.86388	1374.09924	-856.40027	
2640	26.390	-796.20502	56.75160	-638.55737	774.59229	54.50639	-615.39191	-727.32349	-21.31384	493.10916	687.41809	-29.86027	598.45288	-1.47789	1373.04785	-858.63580	
2641	26.400	-795.72589	55.87239	-638.75269	774.85205	53.76797	-615.63025	-727.07251	-20.82523	492.92795	687.39520	-29.39192	598.29761	-1.43138	1371.94312	-860.35052	
2642	26.410	-795.33679	55.00015	-638.97272	775.24548	52.86506	-615.97437	-726.66095	-20.44931	492.86542	687.93109	-28.59349	598.07928	-0.60692	1371.03931	-862.57861	
2643	26.420	-795.07739	54.00015	-639.14655	775.58673	52.11079	-616.08978	-726.34338	-19.73249	492.62122	688.21808	-27.84646	597.84167	-0.51004	1369.76404	-864.62469	
2644	26.430	-794.83301	53.04458	-639.53589	775.79492	51.30203	-616.36865	-726.25055	-18.88946	492.29639	688.45599	-27.24924	597.75873	-0.40094	1368.81396	-866.48309	
2645	26.440	-794.60803	52.39192	-639.45691	775.98108	50.37825	-616.66010	-725.87421	-18.65074	492.43777	688.85730	-26.63320	597.64520	-0.24994	1367.39355	-868.42163	
2646	26.450	-794.30261	51.54217	-639.84949	776.22272	49.56895	-616.84760	-725.91138	-17.63189	492.20203	689.08118	-25.66322	597.40649	-0.05450	1366.36707	-870.18323	
2647	26.460	-793.89056	50.77727	-639.92932	776.57703	48.57435	-617.11700	-725.57874	-16.96839	491.84018	689.19501	-25.00612	597.35553	0.51993	1364.95190	-872.16193	
2648	26.470	-793.76801	49.84406	-640.11774	776.87677	47.76511	-617.40546	-725.16058	-16.44183	491.64032	689.50201	-24.22432	597.05103	0.97240	1364.00806	-874.12939	
2649	26.480	-793.29034	48.56923	-640.66595	777.27917	46.80624	-617.73401	-724.70203	-15.90598	491.47845	690.10004	-23.36152	597.07910	1.41535	1362.65344	-876.06238	
2650	26.490	-792.86212	47.59733	-641.29840	777.59619	45.84665	-617.96906	-724.37042	-15.09261	491.05966	689.83130	-22.91956	597.04602	1.41354	1361.32324	-878.05420	
2651	26.500	-792.76508	47.12780	-641.46277	777.83862	44.90969	-618.29559	-724.12537	-14.51270	491.07645	690.40881	-21.75636	596.61743	1.93678	1360.02722	-880.26892	
2652	26.510	-792.31342	45.70595	-641.25006	778.17535	43.89422	-618.46503	-723.79565	-13.75610	490.90228	691.05365	-21.02127	596.57068	2.43804	1358.75757	-882.32001	
2653	26.520	-792.31915	45.07970	-641.74042	778.43890	42.99378	-618.86115	-723.60474	-13.19940	490.72501	691.19189	-20.28782	596.22412	2.47737	1357.33862	-884.86603	
2654	26.530	-791.92340	44.15024	-642.26044	778.90009	42.08141	-619.12152	-723.26501	-12.27828	490.37411	691.55133	-19.25526	595.99597	3.11108	1355.99438	-887.41168	
2655	26.540	-791.36108	43.13633	-642.49591	779.18982	41.18715	-619.46356	-722.88019	-11.60409	490.30734	691.96283	-18.56425	595.83105	3.00245	1354.83679	-889.65356	
2656	26.550	-791.06647	42.02094	-642.45428	779.32050	40.11465	-619.69861	-722.65826	-10.95186	490.14908	692.13428	-18.01178	595.58783	3.51606	1353.29871	-892.29694	
2657	26.560	-790.61176	40.81736	-642.58704	779.74994	39.07006	-619.95135	-722.28290	-10.34138	489.90192	692.59302	-16.99902	595.43170	4.15882	1352.03540	-894.63379	
2658	26.570	-790.36285	40.29900	-642.92297	780.09302	38.16763	-620.30322	-721.84839	-9.72076	489.69733	692.99011	-16.12909	595.16565	4.35871	1350.56848	-896.78986	
2659	26.580	-789.91473	39.66833	-643.35986	780.56671	37.24402	-620.68854	-721.47821	-9.00307	489.40872	693.13013	-15.38937	594.92279	4.46813	1349.05273	-899.03595	
2660	26.590	-789.71277	37.99821	-643.77319	781.11627	35.78155	-620.82935	-721.15100	-8.09794	489.14087	693.75555	-14.06845	594.89063	5.04578	1347.49683	-901.26678	
2661	26.600	-789.06622	36.50530	-644.43835	781.33594	34.81494	-621.23163	-720.79187	-7.47789	488.90585	693.99268	-13.43946	594.62268	5.44242	1346.10974	-903.54565	
2662	26.610	-788.82800	35.91671	-644.69165	781.72815	33.85062	-621.53235	-720.38605	-6.88274	488.78186	694.58783	-12.36285	594.30823	5.85149	1344.45190	-905.73309	
2663	26.620	-788.43231	35.00884	-644.82050	781.81427	32.74811	-621.79199	-720.04248	-6.09076	488.52765	694.83344	-11.58167	594.09094	6.27859	1342.78455	-908.01703	
2664	26.630	-788.35968	34.17377	-645.08380	782.45050	31.68789	-622.02557	-719.53705	-5.50498	488.46844	695.11963	-10.85477	593.95123	6.75235	1341.87854	-910.90643	
2665	26.640	-787.96832	32.83465	-645.17548	782.69983	30.76542	-622.35541	-719.38013	-4.47867	488.32184	695.38562	-9.89134	593.53772	7.21458	1340.22827	-913.30994	
2666	26.650	-787.86627	32.08031	-645.04645	783.03741	29.85876	-622.65552	-719.15967	-3.66446	487.85141	695.97015	-9.04388	593.72955	7.42419	1338.93970	-915.45227	
2667	26.660	-787.00262	30.73176	-645.60925	783.43817	28.68816	-622.85394	-718.77252	-3.28857	487.62518	695.73987	-8.31373	593.78729	7.48603	1337.52966	-918.15387	
2668	26.670	-786.69421	29.80300	-646.00922	783.83740	27.71541	-623.08777	-718.17212	-2.67392	487.57199	696.10846	-7.67359	593.34064	8.30837	1335.84766	-920.45770	
2669	26.680	-786.28387	28.58610	-646.26526	784.20319	26.77724	-623.26947	-718.02594	-1.85545	487.13419	696.53436	-6.59814	593.00311	8.45290	1334.62305	-922.53833	
2670	26.690	-785.85480	27.91992	-646.11316	784.52899	25.92087	-623.59326	-717.50677	-0.99158	486.96036	696.72522	-6.07937	592.80811	8.80742	1333.04370	-925.10144	
2671	26.700	-785.84088	26.83057	-646.95471	784.76251	24.82238	-623.81348	-717.31500	-0.25694	486.80536	696.46527	-5.21115	592.45135	9.14951	1331.90417	-926.89032	
2672	26.710	-785.59473	26.20784	-647.14899	785.14850	23.72803	-624.14618	-717.10852	0.35178	486.53604	697.21014	-4.47966	592.35864	9.33102	1330.35010	-929.01367	
2673	26.720	-785.13507	24.80276	-647.05933	785.27545	22.59404	-624.33344	-716.84088	1.08925	486.35147	697.95898	-3.26244	591.96643	10.27062	1328.69690	-931.17639	
